<svg height="1774" width="720" xmlns="http://www.w3.org/2000/svg">
<rect height="1774" fill="#555" width="720"></rect>
<text fill="#7f7" font-family="Courier New" font-size="12" xml:space="preserve">
<tspan x="10" y="26">8 megabytes</tspan>
<tspan x="10" y="42">└─┬ socketstream@0.5.3 </tspan>
<tspan x="10" y="58">  ├── apitree@1.2.0 </tspan>
<tspan x="10" y="74">  ├── async@1.4.2 </tspan>
<tspan x="10" y="90">  ├─┬ clean-css@3.3.9 </tspan>
<tspan x="10" y="106">  │ ├─┬ commander@2.8.1 </tspan>
<tspan x="10" y="122">  │ │ └── graceful-readlink@1.0.1 </tspan>
<tspan x="10" y="138">  │ └─┬ source-map@0.4.4 </tspan>
<tspan x="10" y="154">  │   └── amdefine@1.0.1 </tspan>
<tspan x="10" y="170">  ├── colors@1.1.2 </tspan>
<tspan x="10" y="186">  ├─┬ connect-redis@2.4.1 </tspan>
<tspan x="10" y="202">  │ └─┬ debug@1.0.4 </tspan>
<tspan x="10" y="218">  │   └── ms@0.6.2 </tspan>
<tspan x="10" y="234">  ├── cookie@0.2.4 </tspan>
<tspan x="10" y="250">  ├─┬ csurf@1.8.3 </tspan>
<tspan x="10" y="266">  │ ├── cookie@0.1.3 </tspan>
<tspan x="10" y="282">  │ ├── cookie-signature@1.0.6 </tspan>
<tspan x="10" y="298">  │ ├─┬ csrf@3.0.6 </tspan>
<tspan x="10" y="314">  │ │ ├── rndm@1.2.0 </tspan>
<tspan x="10" y="330">  │ │ ├── tsscmp@1.0.5 </tspan>
<tspan x="10" y="346">  │ │ └─┬ uid-safe@2.1.4 </tspan>
<tspan x="10" y="362">  │ │   └── random-bytes@1.0.0 </tspan>
<tspan x="10" y="378">  │ └─┬ http-errors@1.3.1 </tspan>
<tspan x="10" y="394">  │   └── statuses@1.3.1 </tspan>
<tspan x="10" y="410">  ├─┬ debug@2.2.0 </tspan>
<tspan x="10" y="426">  │ └── ms@0.7.1 </tspan>
<tspan x="10" y="442">  ├── eventemitter2@0.4.14 </tspan>
<tspan x="10" y="458">  ├── findup-sync@0.3.0 </tspan>
<tspan x="10" y="474">  ├─┬ glob@5.0.14 </tspan>
<tspan x="10" y="490">  │ ├─┬ inflight@1.0.6 </tspan>
<tspan x="10" y="506">  │ │ └── wrappy@1.0.2 </tspan>
<tspan x="10" y="522">  │ ├── inherits@2.0.3 </tspan>
<tspan x="10" y="538">  │ ├─┬ minimatch@2.0.10 </tspan>
<tspan x="10" y="554">  │ │ └─┬ brace-expansion@1.1.7 </tspan>
<tspan x="10" y="570">  │ │   ├── balanced-match@0.4.2 </tspan>
<tspan x="10" y="586">  │ │   └── concat-map@0.0.1 </tspan>
<tspan x="10" y="602">  │ ├── once@1.4.0 </tspan>
<tspan x="10" y="618">  │ └── path-is-absolute@1.0.1 </tspan>
<tspan x="10" y="634">  ├─┬ micromatch@2.2.0 </tspan>
<tspan x="10" y="650">  │ ├─┬ arr-diff@1.1.0 </tspan>
<tspan x="10" y="666">  │ │ ├── arr-flatten@1.0.1 </tspan>
<tspan x="10" y="682">  │ │ └── array-slice@0.2.3 </tspan>
<tspan x="10" y="698">  │ ├── array-unique@0.2.1 </tspan>
<tspan x="10" y="714">  │ ├─┬ braces@1.8.5 </tspan>
<tspan x="10" y="730">  │ │ ├─┬ expand-range@1.8.2 </tspan>
<tspan x="10" y="746">  │ │ │ └─┬ fill-range@2.2.3 </tspan>
<tspan x="10" y="762">  │ │ │   ├─┬ is-number@2.1.0 </tspan>
<tspan x="10" y="778">  │ │ │   │ └─┬ kind-of@3.1.0 </tspan>
<tspan x="10" y="794">  │ │ │   │   └── is-buffer@1.1.5 </tspan>
<tspan x="10" y="810">  │ │ │   ├─┬ isobject@2.1.0 </tspan>
<tspan x="10" y="826">  │ │ │   │ └── isarray@1.0.0 </tspan>
<tspan x="10" y="842">  │ │ │   ├─┬ randomatic@1.1.6 </tspan>
<tspan x="10" y="858">  │ │ │   │ └── kind-of@3.1.0 </tspan>
<tspan x="10" y="874">  │ │ │   └── repeat-string@1.6.1 </tspan>
<tspan x="10" y="890">  │ │ ├── preserve@0.2.0 </tspan>
<tspan x="10" y="906">  │ │ └── repeat-element@1.1.2 </tspan>
<tspan x="10" y="922">  │ ├─┬ expand-brackets@0.1.5 </tspan>
<tspan x="10" y="938">  │ │ └── is-posix-bracket@0.1.1 </tspan>
<tspan x="10" y="954">  │ ├─┬ extglob@0.3.2 </tspan>
<tspan x="10" y="970">  │ │ └── is-extglob@1.0.0 </tspan>
<tspan x="10" y="986">  │ ├── filename-regex@2.0.0 </tspan>
<tspan x="10" y="1002">  │ ├── is-glob@1.1.3 </tspan>
<tspan x="10" y="1018">  │ ├── kind-of@1.1.0 </tspan>
<tspan x="10" y="1034">  │ ├─┬ object.omit@1.1.0 </tspan>
<tspan x="10" y="1050">  │ │ ├─┬ for-own@0.1.5 </tspan>
<tspan x="10" y="1066">  │ │ │ └── for-in@1.0.2 </tspan>
<tspan x="10" y="1082">  │ │ └── isobject@1.0.2 </tspan>
<tspan x="10" y="1098">  │ ├─┬ parse-glob@3.0.4 </tspan>
<tspan x="10" y="1114">  │ │ ├─┬ glob-base@0.3.0 </tspan>
<tspan x="10" y="1130">  │ │ │ ├─┬ glob-parent@2.0.0 </tspan>
<tspan x="10" y="1146">  │ │ │ │ └── is-glob@2.0.1 </tspan>
<tspan x="10" y="1162">  │ │ │ └── is-glob@2.0.1 </tspan>
<tspan x="10" y="1178">  │ │ ├── is-dotfile@1.0.2 </tspan>
<tspan x="10" y="1194">  │ │ └── is-glob@2.0.1 </tspan>
<tspan x="10" y="1210">  │ └─┬ regex-cache@0.4.3 </tspan>
<tspan x="10" y="1226">  │   ├── is-equal-shallow@0.1.3 </tspan>
<tspan x="10" y="1242">  │   └── is-primitive@2.0.0 </tspan>
<tspan x="10" y="1258">  ├─┬ orchestrator@0.3.7 </tspan>
<tspan x="10" y="1274">  │ ├─┬ end-of-stream@0.1.5 </tspan>
<tspan x="10" y="1290">  │ │ └── once@1.3.3 </tspan>
<tspan x="10" y="1306">  │ ├── sequencify@0.0.7 </tspan>
<tspan x="10" y="1322">  │ └── stream-consume@0.1.0 </tspan>
<tspan x="10" y="1338">  ├── parseurl@1.3.0 </tspan>
<tspan x="10" y="1354">  ├── redis@0.12.1 </tspan>
<tspan x="10" y="1370">  ├── resolve@1.1.7 </tspan>
<tspan x="10" y="1386">  ├─┬ send@0.13.0 </tspan>
<tspan x="10" y="1402">  │ ├── depd@1.0.1 </tspan>
<tspan x="10" y="1418">  │ ├── destroy@1.0.3 </tspan>
<tspan x="10" y="1434">  │ ├── escape-html@1.0.2 </tspan>
<tspan x="10" y="1450">  │ ├── etag@1.7.0 </tspan>
<tspan x="10" y="1466">  │ ├── fresh@0.3.0 </tspan>
<tspan x="10" y="1482">  │ ├── mime@1.3.4 </tspan>
<tspan x="10" y="1498">  │ ├── ms@0.7.1 </tspan>
<tspan x="10" y="1514">  │ ├─┬ on-finished@2.3.0 </tspan>
<tspan x="10" y="1530">  │ │ └── ee-first@1.1.1 </tspan>
<tspan x="10" y="1546">  │ ├── range-parser@1.0.3 </tspan>
<tspan x="10" y="1562">  │ └── statuses@1.2.1 </tspan>
<tspan x="10" y="1578">  ├── shortid@2.2.2 </tspan>
<tspan x="10" y="1594">  ├─┬ uglify-js@2.4.24 </tspan>
<tspan x="10" y="1610">  │ ├── async@0.2.10 </tspan>
<tspan x="10" y="1626">  │ ├── source-map@0.1.34 </tspan>
<tspan x="10" y="1642">  │ ├── uglify-to-browserify@1.0.2 </tspan>
<tspan x="10" y="1658">  │ └─┬ yargs@3.5.4 </tspan>
<tspan x="10" y="1674">  │   ├── camelcase@1.2.1 </tspan>
<tspan x="10" y="1690">  │   ├── decamelize@1.2.0 </tspan>
<tspan x="10" y="1706">  │   ├── window-size@0.1.0 </tspan>
<tspan x="10" y="1722">  │   └── wordwrap@0.0.2 </tspan>
<tspan x="10" y="1738">  ├── utils-merge@1.0.0 </tspan>
<tspan x="10" y="1754">  └── uuid@2.0.1</tspan>
</text>
</svg>
